<?xml version="1.0" encoding="UTF-8" standalone="no"?>
<!--
  GENERATED from assets/eaves.svg -- do not edit by hand.

  eaves.svg is a line drawing (stroke-width 2.5); the stroke IS the artwork, so it is
  baked into filled geometry here via Inkscape stroke-to-path rather than
  dropped. Verified pixel-identical to the source at generation time.

  Regenerate with: yarn generate:icons
-->
<svg
   xmlns="http://www.w3.org/2000/svg"
   viewBox="-7.9332 -8.4033 95.2078 95.2078"
   width="149mm"
   height="149mm"
   version="1.1">
  <defs>
    <!-- Keeps a light mark legible on a light desktop background. Deliberately
         tight: a wide blur turns thin strokes to mush. -->
    <filter id="dark-halo" x="-20%" y="-20%" width="140%" height="140%"
            color-interpolation-filters="sRGB">
      <feFlood flood-color="#000000" flood-opacity="0.45" result="color" />
      <feComposite in="color" in2="SourceGraphic" operator="in" result="shadow-shape" />
      <feGaussianBlur in="shadow-shape" stdDeviation="1.2" result="halo" />
      <feMerge>
        <feMergeNode in="halo" />
        <feMergeNode in="SourceGraphic" />
      </feMerge>
    </filter>
  </defs>
  <g filter="url(#dark-halo)">
  <g transform="translate(-48.339023,-12.15491)">
    <path
       fill="#fafafa"
       d="M 79.248047,12.154297 48.339844,51.230469 79.447266,90.556641 H 98.392578 L 67.976562,52.105469 78.621094,52.193359 94.007812,71.644531 H 112.35352 L 79.851562,30.554687 63.796875,50.851562 93.226562,88.056641 H 80.65625 L 51.527344,51.230469 80.052734,15.166016 109.57422,52.490234 127.67969,52.185547 96.015625,12.154297 Z m 3.585937,2.5 h 11.970703 l 27.777343,35.117187 -11.81445,0.197266 z m -2.982422,19.93164 5.386719,6.810547 -6.564453,8.298828 -10.703125,-0.08984 z m 6.980469,8.824219 20.357419,25.734375 H 95.216797 L 80.847656,50.978516 Z" />
  </g>
  </g>
</svg>
